<?xml version="1.0" standalone="no"?>
<!DOCTYPE svg PUBLIC "-//W3C//DTD SVG 20010904//EN"
 "http://www.w3.org/TR/2001/REC-SVG-20010904/DTD/svg10.dtd">
<svg version="1.0" xmlns="http://www.w3.org/2000/svg"
 width="908.000000pt" height="908.000000pt" viewBox="0 0 908.000000 908.000000"
 preserveAspectRatio="xMidYMid meet">
<metadata>
Created by potrace 1.14, written by Peter Selinger 2001-2017
</metadata>
<g transform="translate(0.000000,908.000000) scale(0.100000,-0.100000)"
fill="#000000" stroke="none">
<path d="M6020 9075 c-8 -2 -296 -11 -640 -21 -344 -9 -626 -18 -628 -19 -4
-4 26 -1204 34 -1373 l6 -123 77 5 c117 9 1061 30 1066 24 3 -3 -210 -83 -472
-178 -263 -95 -484 -175 -490 -178 -7 -2 -13 -8 -13 -13 0 -10 670 -1841 676
-1848 3 -3 1677 624 1701 637 13 8 -665 1832 -681 1832 -5 0 -95 -31 -201 -70
-106 -38 -197 -70 -202 -70 -12 0 -17 101 -40 838 l-17 562 -81 -1 c-44 -1
-87 -3 -95 -4z"/>
<path d="M3288 8398 c-64 -271 -114 -495 -113 -496 5 -5 948 -222 950 -219 5
6 233 992 230 995 -4 4 -926 212 -941 212 -6 0 -62 -219 -126 -492z"/>
<path d="M1901 6905 c-215 -454 -392 -831 -394 -836 -1 -6 317 -159 707 -340
l709 -330 90 21 c151 36 291 50 495 50 290 0 483 -27 689 -95 196 -65 338
-150 480 -288 148 -143 251 -312 323 -530 l33 -97 47 71 c94 141 221 283 353
397 l38 32 -546 745 -546 744 -267 -192 c-147 -105 -400 -287 -562 -404 -162
-116 -296 -210 -298 -209 -2 2 134 303 303 668 168 365 305 668 305 674 0 7
-1479 711 -1554 740 -8 3 -147 -279 -405 -821z"/>
<path d="M3260 5079 c-343 -44 -630 -195 -802 -423 -87 -115 -139 -225 -184
-386 -51 -179 -57 -241 -61 -652 l-5 -388 525 0 526 0 3 378 c3 329 6 383 21
422 34 86 86 121 182 121 103 0 150 -36 183 -140 14 -47 17 -97 17 -306 0
-285 -12 -370 -86 -600 -92 -290 -50 -219 -744 -1242 l-635 -937 0 -433 0
-433 1305 0 1305 0 0 530 0 530 -540 0 c-297 0 -540 2 -540 5 0 12 547 1097
596 1182 196 339 312 658 365 1003 20 128 23 184 23 470 1 275 -2 340 -18 425
-57 308 -170 529 -340 661 -140 110 -352 188 -579 213 -110 13 -421 12 -517 0z"/>
<path d="M6950 5079 c-368 -22 -666 -96 -945 -234 -343 -170 -574 -408 -745
-768 -220 -463 -310 -1030 -310 -1942 0 -627 38 -986 136 -1296 66 -208 140
-342 260 -468 233 -248 530 -365 924 -365 315 0 555 74 771 236 326 246 486
620 529 1238 25 371 -5 832 -74 1102 -55 214 -118 331 -245 450 -142 134 -301
196 -526 205 -260 11 -443 -53 -595 -208 -33 -33 -60 -55 -60 -47 0 39 44 278
70 375 55 213 120 334 233 440 200 187 465 299 797 337 30 4 61 10 68 15 10 6
8 98 -8 452 -11 244 -20 454 -20 467 0 21 -4 22 -67 21 -38 -1 -124 -5 -193
-10z m-633 -2498 c42 -26 90 -127 108 -227 29 -155 40 -543 27 -896 -17 -452
-36 -537 -132 -586 -54 -27 -82 -27 -137 -2 -84 38 -123 140 -143 370 -13 153
-13 816 0 955 27 281 91 402 215 404 17 1 44 -8 62 -18z"/>
</g>
</svg>
