<svg width="842" height="912" viewBox="0 0 842 912" fill="none" xmlns="http://www.w3.org/2000/svg">
<path fill-rule="evenodd" clip-rule="evenodd" d="M476.544 150.335L472.727 4.29529L614.427 0L618.908 137.61L660.229 122.654L727.5 302.102L559.56 365.099L492.766 183.266L592.31 147.237L476.544 150.335ZM341.047 18.1356L434.559 39.1348L411.658 136.972L318.146 115.495L341.047 18.1356ZM436.468 257.24L325.183 337.141L386.372 204.265L232.268 131.722L154.5 295.42L293.529 359.869L293.463 359.916V405.065C295.445 402.964 297.508 400.921 299.654 398.941C333.059 367.898 375.404 354.033 422.158 354.033C462.802 354.033 500.276 364.051 531.488 386.634L436.468 257.24ZM532.305 460.599C527.073 449.23 520.435 439.962 512.393 432.795C489.378 412.287 459.3 402.033 422.158 402.033C385.244 402.033 355.28 412.743 332.266 434.162C319.348 446.056 310.056 463.012 304.389 485.028C299.959 502.236 297.744 522.537 297.744 545.93V768.439C297.744 820.848 309.023 857.762 331.582 879.182C354.368 900.601 384.561 911.311 422.158 911.311C455.426 911.311 484.479 900.715 509.316 879.523C534.382 858.332 546.914 821.304 546.914 768.439V545.93C546.914 510.205 542.044 481.762 532.305 460.599ZM407.119 551.532V796.809C407.119 809.341 408.714 816.975 411.904 819.709C415.094 822.443 418.285 823.811 421.475 823.811C424.665 823.811 427.855 822.443 431.045 819.709C434.463 816.975 436.172 809.341 436.172 796.809V530.429V520.637C436.172 507.421 434.463 499.673 431.045 497.395C427.855 494.888 424.665 493.635 421.475 493.635C418.512 493.635 415.322 494.888 411.904 497.395C408.714 499.673 407.119 507.421 407.119 520.637V551.532ZM701.393 812.189V905.5H821.705V812.189H841.188V711.701H821.705V407.844H715.406L576.295 698.713V812.189H701.393ZM706.861 723.322V596.857H704.811L654.566 723.322H706.861ZM125.15 905.5V812.189H0.0527344V698.713L139.164 407.844H245.463V711.701H264.945V812.189H245.463V905.5H125.15ZM130.619 596.857V723.322H78.3242L128.568 596.857H130.619Z" fill="#3C2B04"/>
</svg>
