<svg width="608" height="908" viewBox="0 0 608 908" fill="none" xmlns="http://www.w3.org/2000/svg">
<path d="M69.8477 902V815.525L196.654 628.562C202.123 615.574 206.908 601.902 211.01 587.547C215.111 573.191 217.162 556.671 217.162 537.986C217.162 518.846 215.681 506.541 212.719 501.072C209.984 495.376 204.63 492.527 196.654 492.527C189.363 492.527 184.008 495.034 180.59 500.047C177.4 505.06 175.805 514.402 175.805 528.074V585.154H70.873V531.492C71.1009 486.603 82.6081 453.221 105.395 431.346C128.409 409.471 160.31 398.533 201.098 398.533C244.62 398.533 275.723 408.787 294.408 429.295C313.093 449.575 322.436 481.932 322.436 526.365C322.436 562.824 318.22 593.243 309.789 617.625C301.586 641.779 290.421 665.249 276.293 688.035L222.631 796.043H331.322V902H69.8477Z" fill="white"/>
<path d="M344.994 710.252V680.516C344.994 585.724 360.603 516.453 391.82 472.703C423.038 428.725 474.193 404.458 545.287 399.9L570.922 398.875L575.023 493.211L565.453 494.92C531.501 498.566 504.158 510.87 483.422 531.834C462.914 552.798 452.66 606.915 452.66 694.188V742.039C452.66 774.168 454.255 795.701 457.445 806.639C460.863 817.348 466.674 822.703 474.877 822.703C483.308 822.703 488.891 817.576 491.625 807.322C494.359 797.068 495.727 770.75 495.727 728.367C495.727 695.327 493.904 673.68 490.258 663.426C486.84 653.172 482.055 648.045 475.902 648.045C467.699 648.045 461.775 653.514 458.129 664.451C454.711 675.161 453.002 691.795 453.002 714.354H435.57C435.57 665.135 442.634 631.069 456.762 612.156C470.889 593.243 491.169 583.787 517.602 583.787C546.54 583.787 568.757 593.927 584.252 614.207C599.975 634.487 607.836 674.477 607.836 734.178C607.836 795.929 595.873 840.363 571.947 867.479C548.021 894.367 516.348 907.811 476.928 907.811C436.368 907.811 404.239 894.139 380.541 866.795C356.843 839.451 344.994 787.27 344.994 710.252Z" fill="white"/>
<path d="M79.3963 134.69L236.728 208.867L174.257 344.737L287.873 263.036L397.185 412.123C383.531 423.06 371.369 435.872 360.859 450.671C358.158 454.459 355.568 458.376 353.089 462.418C347.187 439.92 337.377 419.881 322.427 403.624C293.31 371.728 249.286 360.533 201.098 360.533C188.958 360.533 177.166 361.372 165.803 363.125C157.797 364.359 150.004 366.047 142.453 368.215L0 302.076L79.3963 134.69Z" fill="white"/>
<path d="M190.454 18.5443L285.924 40.0165L262.544 140.058L167.073 118.098L190.454 18.5443Z" fill="white"/>
<path d="M516.32 125.418L585 308.908L413.543 373.325L345.35 187.395L446.979 150.554L328.789 153.722L324.892 4.39206L469.559 0L474.134 140.71L516.32 125.418Z" fill="white"/>
</svg>
